<?xml version="1.0" encoding="UTF-8"?>
<svg id="Calque_1" data-name="Calque 1" xmlns="http://www.w3.org/2000/svg" viewBox="0 0 1000 1000">
  <defs>
    <style>
      .cls-1 {
        fill: #1d2635;
      }

      .cls-2 {
        fill: #4a90e2;
      }
    </style>
  </defs>
  <rect class="cls-2" width="1000" height="1000"/>
  <rect class="cls-1" x="65" y="65" width="870" height="870"/>
  <path class="cls-2" d="M545.977,415.383v-.022c0-34.201,27.728-61.908,61.908-61.908s61.908,27.728,61.908,61.908-27.706,61.908-61.908,61.908h-.044c-34.179,0-61.886-27.706-61.886-61.886v-.022h0l.022.022ZM690.064,415.514c0-45.507-36.891-82.398-82.398-82.398s-82.398,36.891-82.398,82.398,36.891,82.398,82.398,82.398h0c45.485-.066,82.332-36.913,82.398-82.376h0v-.022ZM499.442,172.104c-171.815.022-312.731,132.213-326.661,300.42l-.087,1.181,175.773,72.645c14.608-10.103,32.692-16.117,52.198-16.117h.044c1.728,0,3.411.109,5.139.175l78.177-113.188v-1.618c.066-68.227,55.391-123.509,123.619-123.509s123.619,55.347,123.619,123.619-55.347,123.619-123.619,123.619h-2.865l-111.394,79.555c0,1.421.109,2.865.109,4.352v.066c0,51.214-41.527,92.741-92.741,92.741-44.763,0-82.135-31.73-90.817-73.913l-.109-.59-125.849-52.111c40.259,138.751,166.217,238.468,315.443,238.468,181.087,0,327.886-146.798,327.886-327.886s-146.798-327.886-327.886-327.886h-.022l.044-.022ZM369.648,628.373v-.011c0-17.315,14.038-31.343,31.343-31.343s31.343,14.038,31.343,31.343-14.027,31.343-31.343,31.343h-.022c-17.304,0-31.331-14.027-31.331-31.331v-.011h0l.011.011ZM450.268,628.362c0-27.218-22.065-49.283-49.283-49.283s-49.283,22.065-49.283,49.283,22.065,49.283,49.283,49.283h0c27.205-.039,49.244-22.078,49.283-49.27h0v-.013Z"/>
</svg>