<?xml version="1.0" encoding="UTF-8"?>
<svg id="Calque_1" xmlns="http://www.w3.org/2000/svg" version="1.1" viewBox="0 0 1000 1000">
  <!-- Generator: Adobe Illustrator 30.8.2, SVG Export Plug-In . SVG Version: 2.1.4 Build 7)  -->
  <defs>
    <style>
      .st0 {
        fill: #4a90e2;
      }

      .st1 {
        fill: #1d2635;
      }
    </style>
  </defs>
  <rect class="st0" width="1000" height="1000"/>
  <rect class="st1" x="40" y="40" width="920" height="920" rx="45" ry="45"/>
  <path class="st0" d="M432.09,724.56c9.34-2.88,15.99-5.39,19.94-7.54s7.31-5.15,10.06-8.99,4.91-9.7,6.47-17.61c1.55-7.9,2.34-20.24,2.34-37.01v-156.65c0-15.33-.24-27.66-.72-37.01-.48-9.34-2.16-16.82-5.03-22.46-2.88-5.63-7.24-9.82-13.11-12.58-5.86-2.76-14.19-5.09-24.97-7.01v-19.04l83.71-3.23h21.92v256.89c0,20.6.96,34.91,2.88,42.93,1.92,8.03,5.57,14.13,10.96,18.32s14.19,7.85,26.41,10.96v17.61h-140.84v-17.61h0l-.02.03ZM534.85,257.84v69.7h-66.1v-69.7h66.1Z"/>
</svg>