<?xml version="1.0" encoding="UTF-8"?>
<svg id="Calque_1" xmlns="http://www.w3.org/2000/svg" version="1.1" viewBox="0 0 1000 1000">
  <!-- Generator: Adobe Illustrator 30.8.2, SVG Export Plug-In . SVG Version: 2.1.4 Build 7)  -->
  <defs>
    <style>
      .st0 {
        fill: #4a90e2;
      }

      .st1 {
        fill: #1d2635;
      }
    </style>
  </defs>
  <rect class="st0" width="1000" height="1000"/>
  <rect class="st1" x="65" y="65" width="870" height="870" rx="50" ry="50"/>
  <path class="st0" d="M710.51,764.83c30,0,54.32-24.32,54.32-54.32v-421.01c0-30-24.32-54.32-54.32-54.32h-421.01c-30,0-54.32,24.32-54.32,54.32v421.01c0,30,24.32,54.32,54.32,54.32h421.01ZM710.51,791.99h-421.01c-45.01,0-81.49-36.48-81.49-81.49v-421.01c0-45.01,36.48-81.49,81.49-81.49h421.01c45.01,0,81.49,36.48,81.49,81.49v421.01c0,45.01-36.48,81.49-81.49,81.49Z"/>
  <path class="st0" d="M224.98,350.61h550.03c7.5,0,13.58-6.08,13.58-13.58s-6.08-13.58-13.58-13.58H224.98c-7.5,0-13.58,6.08-13.58,13.58s6.08,13.58,13.58,13.58Z"/>
  <path class="st0" d="M662.23,215.67l-107.37,107.37c-5.3,5.3-5.3,13.9,0,19.21,5.3,5.3,13.9,5.3,19.21,0l107.37-107.37c5.3-5.3,5.3-13.9,0-19.21-5.3-5.3-13.9-5.3-19.21,0h0ZM556.3,215.67l-107.37,107.37c-5.3,5.3-5.3,13.9,0,19.21,5.3,5.3,13.9,5.3,19.21,0l107.37-107.37c5.3-5.3,5.3-13.9,0-19.21-5.3-5.3-13.9-5.3-19.21,0ZM449.69,215.67l-107.37,107.37c-5.3,5.3-5.3,13.9,0,19.21,5.3,5.3,13.9,5.3,19.21,0l107.37-107.37c5.3-5.3,5.3-13.9,0-19.21-5.3-5.3-13.9-5.3-19.21,0ZM344.43,214.99l-107.37,107.37c-5.3,5.3-5.3,13.9,0,19.21,5.3,5.3,13.9,5.3,19.21,0l107.37-107.37c5.3-5.3,5.3-13.9,0-19.21s-13.9-5.3-19.21,0h0ZM740.89,243.6l-83.1,83.1c-5.3,5.3-5.3,13.9,0,19.21,5.3,5.3,13.9,5.3,19.21,0l83.1-83.1c5.3-5.3,5.3-13.9,0-19.21-5.3-5.3-13.9-5.3-19.21,0h0ZM457.8,449.36c-4.52-2.87-10.43.38-10.43,5.73v186.29c0,5.35,5.91,8.6,10.43,5.73l146.98-93.15c4.21-2.67,4.21-8.8,0-11.47l-146.98-93.15h0ZM619.32,519.56c21.04,13.33,21.04,44.03,0,57.36l-146.98,93.14c-22.6,14.33-52.13-1.92-52.13-28.68v-186.29c0-26.76,29.52-43.01,52.13-28.68l146.98,93.14h0Z"/>
</svg>